<?xml version="1.0" encoding="iso-8859-1"?>
<!-- Generator: Adobe Illustrator 19.0.0, SVG Export Plug-In . SVG Version: 6.00 Build 0)  -->
<svg version="1.1" id="Layer_1" xmlns="http://www.w3.org/2000/svg" xmlns:xlink="http://www.w3.org/1999/xlink" x="0px" y="0px"
	 viewBox="0 0 512 512" style="enable-background:new 0 0 512 512;" xml:space="preserve">
<g>
	<g>
		<path d="M454.221,173.906L437.02,74.983l-98.924-17.205L256,0l-82.096,57.779L74.98,74.98l-17.202,98.925L0,256l57.78,82.094
			l17.202,98.924l98.924,17.203L256,512l82.094-57.779l98.925-17.2l17.202-98.924L512,256L454.221,173.906z M420.272,314.205
			l-5.357,7.612l-1.594,9.169l-12.195,70.141l-70.141,12.195l-9.17,1.594l-7.611,5.357L256,461.234l-58.202-40.963l-7.611-5.357
			l-9.169-1.594l-70.141-12.197l-12.195-70.141l-1.594-9.169l-5.358-7.612L50.766,256l40.963-58.202l5.358-7.612l1.594-9.17
			l12.197-70.141l70.141-12.197l9.169-1.594l7.611-5.357L256,50.766l58.203,40.963l7.611,5.357l9.169,1.594l70.141,12.197
			l12.197,70.141l1.594,9.169l5.358,7.612L461.236,256L420.272,314.205z"/>
	</g>
</g>
<g>
	<g>
		<circle cx="256" cy="256" r="145.297"/>
	</g>
</g>
<g>
</g>
<g>
</g>
<g>
</g>
<g>
</g>
<g>
</g>
<g>
</g>
<g>
</g>
<g>
</g>
<g>
</g>
<g>
</g>
<g>
</g>
<g>
</g>
<g>
</g>
<g>
</g>
<g>
</g>
</svg>
